<svg xmlns="http://www.w3.org/2000/svg" width="130" height="130" viewBox="0 0 130 130"><g opacity=".8"><g transform="translate(96 88) rotate(12) scale(0.75)"><path d="M-8 0 a8 8 0 0 1 16 0 v8 l-2.7 -2 -2.65 2 -2.65 -2 -2.65 2 -2.7 -2 -2.65 2 Z" fill="#ffffff" stroke="#c9bce0" stroke-width="1"></path><circle cx="-3" cy="-1" r="1.3" fill="#5a4a78"></circle><circle cx="3" cy="-1" r="1.3" fill="#5a4a78"></circle><ellipse cx="0" cy="2.6" rx="1.4" ry="1.8" fill="#5a4a78"></ellipse><ellipse cx="-5.4" cy="1.6" rx="1.7" ry="1" fill="#f7b1c8" opacity=".8"></ellipse><ellipse cx="5.4" cy="1.6" rx="1.7" ry="1" fill="#f7b1c8" opacity=".8"></ellipse></g><g transform="translate(22 16) rotate(-18) scale(0.5)"><path d="M-8 0 a8 8 0 0 1 16 0 v8 l-2.7 -2 -2.65 2 -2.65 -2 -2.65 2 -2.7 -2 -2.65 2 Z" fill="#ffffff" stroke="#c9bce0" stroke-width="1"></path><circle cx="-3" cy="-1" r="1.3" fill="#5a4a78"></circle><circle cx="3" cy="-1" r="1.3" fill="#5a4a78"></circle><ellipse cx="0" cy="2.6" rx="1.4" ry="1.8" fill="#5a4a78"></ellipse><ellipse cx="-5.4" cy="1.6" rx="1.7" ry="1" fill="#f7b1c8" opacity=".8"></ellipse><ellipse cx="5.4" cy="1.6" rx="1.7" ry="1" fill="#f7b1c8" opacity=".8"></ellipse></g></g></svg>