<svg xmlns="http://www.w3.org/2000/svg" width="130" height="130" viewBox="0 0 130 130"><g opacity=".8"><g transform="translate(102 28) rotate(18) scale(0.7)"><ellipse cx="-3.4" cy="-8.5" rx="2.5" ry="5.6" fill="#fffdf8" stroke="#e3c4cf" stroke-width=".7" transform="rotate(-10 -3.4 -8.5)"></ellipse><ellipse cx="3.4" cy="-8.5" rx="2.5" ry="5.6" fill="#fffdf8" stroke="#e3c4cf" stroke-width=".7" transform="rotate(10 3.4 -8.5)"></ellipse><circle cy="0.5" r="7.2" fill="#fffdf8" stroke="#e3c4cf" stroke-width=".7"></circle><circle cx="-2.6" cy="-0.5" r="1.1" fill="#5d4a52"></circle><circle cx="2.6" cy="-0.5" r="1.1" fill="#5d4a52"></circle><path d="M-1.6 2.2 Q0 3.8 1.6 2.2" stroke="#5d4a52" stroke-width="1" fill="none" stroke-linecap="round"></path><ellipse cx="-4.6" cy="1.8" rx="1.5" ry="0.9" fill="#f7b1c8" opacity=".85"></ellipse><ellipse cx="4.6" cy="1.8" rx="1.5" ry="0.9" fill="#f7b1c8" opacity=".85"></ellipse></g><g transform="translate(36 108) rotate(-10) scale(0.5)"><ellipse cx="-3.4" cy="-8.5" rx="2.5" ry="5.6" fill="#fffdf8" stroke="#e3c4cf" stroke-width=".7" transform="rotate(-10 -3.4 -8.5)"></ellipse><ellipse cx="3.4" cy="-8.5" rx="2.5" ry="5.6" fill="#fffdf8" stroke="#e3c4cf" stroke-width=".7" transform="rotate(10 3.4 -8.5)"></ellipse><circle cy="0.5" r="7.2" fill="#fffdf8" stroke="#e3c4cf" stroke-width=".7"></circle><circle cx="-2.6" cy="-0.5" r="1.1" fill="#5d4a52"></circle><circle cx="2.6" cy="-0.5" r="1.1" fill="#5d4a52"></circle><path d="M-1.6 2.2 Q0 3.8 1.6 2.2" stroke="#5d4a52" stroke-width="1" fill="none" stroke-linecap="round"></path><ellipse cx="-4.6" cy="1.8" rx="1.5" ry="0.9" fill="#f7b1c8" opacity=".85"></ellipse><ellipse cx="4.6" cy="1.8" rx="1.5" ry="0.9" fill="#f7b1c8" opacity=".85"></ellipse></g></g></svg>