<svg xmlns="http://www.w3.org/2000/svg" width="130" height="130" viewBox="0 0 130 130"><g opacity=".8"><g transform="translate(24 96) rotate(8) scale(0.65)"><path d="M-7.5 0.8 Q-7.5 -7.5 0 -7.5 Q7.5 -7.5 7.5 0.8 Q7.5 2.4 5.9 2.4 L-5.9 2.4 Q-7.5 2.4 -7.5 0.8 Z" fill="#ef8585"></path><g fill="#ffe9e3"><circle cx="-3.4" cy="-3" r="1.4"></circle><circle cx="2.8" cy="-4.4" r="1.1"></circle><circle cx="4.6" cy="-1" r="1.2"></circle></g><rect x="-2.8" y="2.4" width="5.6" height="5.6" rx="2.4" fill="#fff8ef" stroke="#e8cdb0" stroke-width=".6"></rect></g><g transform="translate(88 14) rotate(20) scale(0.45)"><path d="M-7.5 0.8 Q-7.5 -7.5 0 -7.5 Q7.5 -7.5 7.5 0.8 Q7.5 2.4 5.9 2.4 L-5.9 2.4 Q-7.5 2.4 -7.5 0.8 Z" fill="#ef8585"></path><g fill="#ffe9e3"><circle cx="-3.4" cy="-3" r="1.4"></circle><circle cx="2.8" cy="-4.4" r="1.1"></circle><circle cx="4.6" cy="-1" r="1.2"></circle></g><rect x="-2.8" y="2.4" width="5.6" height="5.6" rx="2.4" fill="#fff8ef" stroke="#e8cdb0" stroke-width=".6"></rect></g></g></svg>