<svg xmlns="http://www.w3.org/2000/svg" viewBox="0 0 64 64"><rect width="64" height="64" rx="16" fill="#ffe9ee"></rect><g transform="translate(32 16)"><ellipse cx="-5" cy="0" rx="5" ry="2.6" fill="#7cb95e" transform="rotate(-22 -5 0)"></ellipse><ellipse cx="5" cy="0" rx="5" ry="2.6" fill="#7cb95e" transform="rotate(22 5 0)"></ellipse><ellipse cx="0" cy="-1" rx="2.6" ry="3.2" fill="#92c973"></ellipse></g><path d="M32 51 C20 44 16.5 33 21.5 26.5 Q32 17.5 42.5 26.5 C47.5 33 44 44 32 51 Z" fill="#f76d8e"></path><g fill="#ffe2ea"><ellipse cx="25" cy="42" rx="1.1" ry="1.6"></ellipse><ellipse cx="39" cy="42" rx="1.1" ry="1.6"></ellipse><ellipse cx="23" cy="30" rx="1.1" ry="1.6"></ellipse><ellipse cx="41" cy="30" rx="1.1" ry="1.6"></ellipse><ellipse cx="32" cy="45.5" rx="1.1" ry="1.6"></ellipse></g><g transform="translate(32 33) scale(0.95)"><circle cx="-5.5" cy="0" r="2" fill="#7c2940"></circle><circle cx="-6.2" cy="-0.7" r="0.7" fill="#ffffff"></circle><circle cx="5.5" cy="0" r="2" fill="#7c2940"></circle><circle cx="4.8" cy="-0.7" r="0.7" fill="#ffffff"></circle><path d="M-3.2 3.6 Q0 6.6 3.2 3.6" stroke="#7c2940" stroke-width="1.7" fill="none" stroke-linecap="round"></path><ellipse cx="-9.2" cy="3.2" rx="2.6" ry="1.6" fill="#ffb7c9" opacity=".75"></ellipse><ellipse cx="9.2" cy="3.2" rx="2.6" ry="1.6" fill="#ffb7c9" opacity=".75"></ellipse></g></svg>