<svg xmlns="http://www.w3.org/2000/svg" width="130" height="130" viewBox="0 0 130 130"><g opacity=".8"><g transform="translate(66 60) rotate(-6) scale(0.6)"><path d="M0 6 C-4.5 2.8 -7 0.2 -7 -2.6 C-7 -4.8 -5.3 -6.2 -3.5 -6.2 C-2.2 -6.2 -0.8 -5.5 0 -4.4 C0.8 -5.5 2.2 -6.2 3.5 -6.2 C5.3 -6.2 7 -4.8 7 -2.6 C7 0.2 4.5 2.8 0 6 Z" fill="#f3a7c3"></path></g><g transform="translate(116 112) rotate(0) scale(0.4)"><path d="M0 6 C-4.5 2.8 -7 0.2 -7 -2.6 C-7 -4.8 -5.3 -6.2 -3.5 -6.2 C-2.2 -6.2 -0.8 -5.5 0 -4.4 C0.8 -5.5 2.2 -6.2 3.5 -6.2 C5.3 -6.2 7 -4.8 7 -2.6 C7 0.2 4.5 2.8 0 6 Z" fill="#f3a7c3"></path></g></g></svg>