<svg xmlns="http://www.w3.org/2000/svg" width="130" height="130" viewBox="0 0 130 130"><g opacity=".8"><g transform="translate(30 34) rotate(-12) scale(0.85)"><path d="M-4 -7.5 q2.2 -2.8 0 -5.6" stroke="#cfa9b8" stroke-width="1.5" stroke-linecap="round" fill="none"></path><path d="M3 -7 q2.2 -2.8 0 -5.6" stroke="#cfa9b8" stroke-width="1.5" stroke-linecap="round" fill="none"></path><path d="M9.5 -2 a4 4 0 0 1 0 8" stroke="#cfa9b8" stroke-width="2" fill="none"></path><rect x="-9.5" y="-3.5" width="19" height="11" rx="5" fill="#fffdf8" stroke="#cfa9b8" stroke-width="1"></rect><ellipse cx="0" cy="-2.6" rx="7.6" ry="2" fill="#a8cf8c"></ellipse></g><g transform="translate(104 98) rotate(15) scale(0.5)"><path d="M-4 -7.5 q2.2 -2.8 0 -5.6" stroke="#cfa9b8" stroke-width="1.5" stroke-linecap="round" fill="none"></path><path d="M3 -7 q2.2 -2.8 0 -5.6" stroke="#cfa9b8" stroke-width="1.5" stroke-linecap="round" fill="none"></path><path d="M9.5 -2 a4 4 0 0 1 0 8" stroke="#cfa9b8" stroke-width="2" fill="none"></path><rect x="-9.5" y="-3.5" width="19" height="11" rx="5" fill="#fffdf8" stroke="#cfa9b8" stroke-width="1"></rect><ellipse cx="0" cy="-2.6" rx="7.6" ry="2" fill="#a8cf8c"></ellipse></g></g></svg>