<svg xmlns="http://www.w3.org/2000/svg" width="130" height="130" viewBox="0 0 130 130"><g opacity=".8"><g transform="translate(96 88) rotate(12) scale(0.75)"><ellipse cx="-3" cy="-7.8" rx="3.4" ry="1.8" fill="#7cb95e" transform="rotate(-22 -3 -7.8)"></ellipse><ellipse cx="3" cy="-7.8" rx="3.4" ry="1.8" fill="#7cb95e" transform="rotate(22 3 -7.8)"></ellipse><path d="M0 9.5 C-6.5 5.5 -8.5 -0.5 -5.8 -4 Q0 -9 5.8 -4 C8.5 -0.5 6.5 5.5 0 9.5 Z" fill="#f76d8e"></path><g fill="#ffe2ea"><ellipse cx="-3.4" cy="0" rx="0.8" ry="1.1"></ellipse><ellipse cx="3.4" cy="0" rx="0.8" ry="1.1"></ellipse><ellipse cx="0" cy="4.5" rx="0.8" ry="1.1"></ellipse></g></g><g transform="translate(22 16) rotate(-18) scale(0.5)"><ellipse cx="-3" cy="-7.8" rx="3.4" ry="1.8" fill="#7cb95e" transform="rotate(-22 -3 -7.8)"></ellipse><ellipse cx="3" cy="-7.8" rx="3.4" ry="1.8" fill="#7cb95e" transform="rotate(22 3 -7.8)"></ellipse><path d="M0 9.5 C-6.5 5.5 -8.5 -0.5 -5.8 -4 Q0 -9 5.8 -4 C8.5 -0.5 6.5 5.5 0 9.5 Z" fill="#f76d8e"></path><g fill="#ffe2ea"><ellipse cx="-3.4" cy="0" rx="0.8" ry="1.1"></ellipse><ellipse cx="3.4" cy="0" rx="0.8" ry="1.1"></ellipse><ellipse cx="0" cy="4.5" rx="0.8" ry="1.1"></ellipse></g></g></g></svg>