<svg xmlns="http://www.w3.org/2000/svg" viewBox="0 0 64 64"><rect width="64" height="64" rx="16" fill="#eef5e0"></rect><path d="M32 16.5 C37.5 16.5 41 21.5 42 28 C43.5 38 40 50 32 50 C24 50 20.5 38 22 28 C23 21.5 26.5 16.5 32 16.5 Z" fill="#7fae53"></path><path d="M32 19 C36.5 19 39.5 23.5 40.4 29 C41.7 38 38.5 48 32 48 C25.5 48 22.3 38 23.6 29 C24.5 23.5 27.5 19 32 19 Z" fill="#dcebb8"></path><circle cx="32" cy="38.5" r="6.5" fill="#c08d52"></circle><circle cx="30" cy="36.5" r="1.8" fill="#d9ad78"></circle><g transform="translate(32 38.5) scale(0.55)"><circle cx="-5.5" cy="0" r="2" fill="#5f3d1e"></circle><circle cx="-6.2" cy="-0.7" r="0.7" fill="#ffffff"></circle><circle cx="5.5" cy="0" r="2" fill="#5f3d1e"></circle><circle cx="4.8" cy="-0.7" r="0.7" fill="#ffffff"></circle><path d="M-3.2 3.6 Q0 6.6 3.2 3.6" stroke="#5f3d1e" stroke-width="1.7" fill="none" stroke-linecap="round"></path><ellipse cx="-9.2" cy="3.2" rx="2.6" ry="1.6" fill="#f5a9a0" opacity=".75"></ellipse><ellipse cx="9.2" cy="3.2" rx="2.6" ry="1.6" fill="#f5a9a0" opacity=".75"></ellipse></g></svg>