<svg xmlns="http://www.w3.org/2000/svg" viewBox="0 0 64 64"><rect width="64" height="64" rx="16" fill="#efe9f4"></rect><path d="M20 15.5 q1.5 -2.5 0 -5" stroke="#d8cce8" stroke-width="1.5" fill="none" stroke-linecap="round"></path><path d="M44 15.5 q1.5 -2.5 0 -5" stroke="#d8cce8" stroke-width="1.5" fill="none" stroke-linecap="round"></path><path d="M17.5 41.5 Q17.5 25 32 25 Q46.5 25 46.5 41.5 Q46.5 45 43 45 L21 45 Q17.5 45 17.5 41.5 Z" fill="#fdf6ee"></path><path d="M32 25.3 Q27 27 24.5 30.5" stroke="#e8d5c0" stroke-width="1.4" fill="none" stroke-linecap="round"></path><path d="M32 25.3 L32 30" stroke="#e8d5c0" stroke-width="1.4" fill="none" stroke-linecap="round"></path><path d="M32 25.3 Q37 27 39.5 30.5" stroke="#e8d5c0" stroke-width="1.4" fill="none" stroke-linecap="round"></path><g transform="translate(32 37) scale(0.9)"><circle cx="-5.5" cy="0" r="2" fill="#8a6a52"></circle><circle cx="-6.2" cy="-0.7" r="0.7" fill="#ffffff"></circle><circle cx="5.5" cy="0" r="2" fill="#8a6a52"></circle><circle cx="4.8" cy="-0.7" r="0.7" fill="#ffffff"></circle><path d="M-3.2 3.6 Q0 6.6 3.2 3.6" stroke="#8a6a52" stroke-width="1.7" fill="none" stroke-linecap="round"></path><ellipse cx="-9.2" cy="3.2" rx="2.6" ry="1.6" fill="#f5a9b8" opacity=".75"></ellipse><ellipse cx="9.2" cy="3.2" rx="2.6" ry="1.6" fill="#f5a9b8" opacity=".75"></ellipse></g></svg>