<svg xmlns="http://www.w3.org/2000/svg" viewBox="0 0 64 64"><rect width="64" height="64" rx="16" fill="#fdeef3"></rect><circle cx="0" cy="-10.5" r="7.2" fill="#f9b8cd" transform="translate(32 33) rotate(0)"></circle><circle cx="0" cy="-10.5" r="7.2" fill="#f9b8cd" transform="translate(32 33) rotate(72)"></circle><circle cx="0" cy="-10.5" r="7.2" fill="#f9b8cd" transform="translate(32 33) rotate(144)"></circle><circle cx="0" cy="-10.5" r="7.2" fill="#f9b8cd" transform="translate(32 33) rotate(216)"></circle><circle cx="0" cy="-10.5" r="7.2" fill="#f9b8cd" transform="translate(32 33) rotate(288)"></circle><circle cx="32" cy="33" r="7.8" fill="#fff7f9"></circle><g transform="translate(32 33) scale(0.6)"><circle cx="-5.5" cy="0" r="2" fill="#9c4a66"></circle><circle cx="-6.2" cy="-0.7" r="0.7" fill="#ffffff"></circle><circle cx="5.5" cy="0" r="2" fill="#9c4a66"></circle><circle cx="4.8" cy="-0.7" r="0.7" fill="#ffffff"></circle><path d="M-3.2 3.6 Q0 6.6 3.2 3.6" stroke="#9c4a66" stroke-width="1.7" fill="none" stroke-linecap="round"></path><ellipse cx="-9.2" cy="3.2" rx="2.6" ry="1.6" fill="#f6a8c4" opacity=".75"></ellipse><ellipse cx="9.2" cy="3.2" rx="2.6" ry="1.6" fill="#f6a8c4" opacity=".75"></ellipse></g></svg>