<svg xmlns="http://www.w3.org/2000/svg" viewBox="0 0 64 64"><rect width="64" height="64" rx="16" fill="#fde8ef"></rect><ellipse cx="25.5" cy="16" rx="4.6" ry="11" fill="#fffdf8" transform="rotate(-8 25.5 16)"></ellipse><ellipse cx="25.5" cy="17" rx="2.2" ry="7" fill="#f9cfdd" transform="rotate(-8 25.5 17)"></ellipse><ellipse cx="38.5" cy="16" rx="4.6" ry="11" fill="#fffdf8" transform="rotate(8 38.5 16)"></ellipse><ellipse cx="38.5" cy="17" rx="2.2" ry="7" fill="#f9cfdd" transform="rotate(8 38.5 17)"></ellipse><circle cx="32" cy="37" r="15.5" fill="#fffdf8"></circle><g transform="translate(32 36) scale(0.95)"><circle cx="-5.5" cy="0" r="2" fill="#33502e"></circle><circle cx="-6.2" cy="-0.7" r="0.7" fill="#ffffff"></circle><circle cx="5.5" cy="0" r="2" fill="#33502e"></circle><circle cx="4.8" cy="-0.7" r="0.7" fill="#ffffff"></circle><path d="M-3.2 3.6 Q0 6.6 3.2 3.6" stroke="#33502e" stroke-width="1.7" fill="none" stroke-linecap="round"></path><ellipse cx="-9.2" cy="3.2" rx="2.6" ry="1.6" fill="#f6a8c4" opacity=".75"></ellipse><ellipse cx="9.2" cy="3.2" rx="2.6" ry="1.6" fill="#f6a8c4" opacity=".75"></ellipse></g></svg>