<svg xmlns="http://www.w3.org/2000/svg" viewBox="0 0 64 64"><rect width="64" height="64" rx="16" fill="#f7e3e3"></rect><circle cx="22" cy="20.5" r="4.8" fill="#e8b98a"></circle><circle cx="22" cy="20.5" r="2.3" fill="#f7d9c4"></circle><circle cx="42" cy="20.5" r="4.8" fill="#e8b98a"></circle><circle cx="42" cy="20.5" r="2.3" fill="#f7d9c4"></circle><circle cx="32" cy="35" r="15.5" fill="#ecc189"></circle><ellipse cx="24" cy="40" rx="7" ry="6" fill="#fdf6ec"></ellipse><ellipse cx="40" cy="40" rx="7" ry="6" fill="#fdf6ec"></ellipse><circle cx="26.5" cy="32.5" r="2" fill="#6b4a2a"></circle><circle cx="25.8" cy="31.8" r="0.7" fill="#ffffff"></circle><circle cx="37.5" cy="32.5" r="2" fill="#6b4a2a"></circle><circle cx="36.8" cy="31.8" r="0.7" fill="#ffffff"></circle><ellipse cx="32" cy="36.8" rx="1.6" ry="1.3" fill="#e08a96"></ellipse><path d="M32 38 Q30.8 40.2 29 39.6" stroke="#6b4a2a" stroke-width="1.4" fill="none" stroke-linecap="round"></path><path d="M32 38 Q33.2 40.2 35 39.6" stroke="#6b4a2a" stroke-width="1.4" fill="none" stroke-linecap="round"></path><ellipse cx="21.5" cy="36.5" rx="2.6" ry="1.6" fill="#f78ba8" opacity=".75"></ellipse><ellipse cx="42.5" cy="36.5" rx="2.6" ry="1.6" fill="#f78ba8" opacity=".75"></ellipse></svg>