<svg xmlns="http://www.w3.org/2000/svg" viewBox="0 0 64 64"><rect width="64" height="64" rx="16" fill="#e8f3e2"></rect><path d="M27 20 q2.4 -3 0 -6" stroke="#9bbf86" stroke-width="1.8" fill="none" stroke-linecap="round"></path><path d="M35 21 q2.4 -3 0 -6" stroke="#9bbf86" stroke-width="1.8" fill="none" stroke-linecap="round"></path><path d="M45 33 a4.5 4.5 0 0 1 0 9" stroke="#e3cdb4" stroke-width="2.6" fill="none"></path><rect x="19" y="26" width="26" height="20" rx="8" fill="#fffdf8"></rect><ellipse cx="32" cy="27.5" rx="11" ry="2.8" fill="#a8cf8c"></ellipse><g transform="translate(32 37) scale(0.8)"><circle cx="-5.5" cy="0" r="2" fill="#5d6e4e"></circle><circle cx="-6.2" cy="-0.7" r="0.7" fill="#ffffff"></circle><circle cx="5.5" cy="0" r="2" fill="#5d6e4e"></circle><circle cx="4.8" cy="-0.7" r="0.7" fill="#ffffff"></circle><path d="M-3.2 3.6 Q0 6.6 3.2 3.6" stroke="#5d6e4e" stroke-width="1.7" fill="none" stroke-linecap="round"></path><ellipse cx="-9.2" cy="3.2" rx="2.6" ry="1.6" fill="#f3b8c5" opacity=".75"></ellipse><ellipse cx="9.2" cy="3.2" rx="2.6" ry="1.6" fill="#f3b8c5" opacity=".75"></ellipse></g></svg>