<svg xmlns="http://www.w3.org/2000/svg" viewBox="0 0 64 64"><rect width="64" height="64" rx="16" fill="#2d2d49"></rect><circle cx="32" cy="34" r="14.5" fill="#ffe9a8"></circle><circle cx="24.5" cy="28" r="2.4" fill="#f5d98b"></circle><circle cx="40" cy="41" r="1.8" fill="#f5d98b"></circle><g transform="translate(32 34) scale(0.9)"><g stroke="#8a6d3a" stroke-width="1.7" fill="none" stroke-linecap="round"><path d="M-7.3 0.4 Q-5.5 -1.9 -3.7 0.4"></path><path d="M3.7 0.4 Q5.5 -1.9 7.3 0.4"></path></g><path d="M-3.2 3.6 Q0 6.6 3.2 3.6" stroke="#8a6d3a" stroke-width="1.7" fill="none" stroke-linecap="round"></path><ellipse cx="-9.2" cy="3.2" rx="2.6" ry="1.6" fill="#f7bf9e" opacity=".75"></ellipse><ellipse cx="9.2" cy="3.2" rx="2.6" ry="1.6" fill="#f7bf9e" opacity=".75"></ellipse></g><path d="M14 15 L15 17.6 L17.6 18.6 L15 19.6 L14 22.2 L13 19.6 L10.4 18.6 L13 17.6 Z" fill="#f3a7c3"></path><path d="M50 46 L50.8 48 L52.8 48.8 L50.8 49.6 L50 51.6 L49.2 49.6 L47.2 48.8 L49.2 48 Z" fill="#f1edf9"></path></svg>