<svg xmlns="http://www.w3.org/2000/svg" viewBox="0 0 64 64"><rect width="64" height="64" rx="16" fill="#fdeede"></rect><path d="M15.5 31 Q15.5 14.5 32 14.5 Q48.5 14.5 48.5 31 Q48.5 34.5 45 34.5 L19 34.5 Q15.5 34.5 15.5 31 Z" fill="#ef8585"></path><g fill="#ffe9e3"><circle cx="24" cy="24" r="3"></circle><circle cx="38" cy="20.5" r="2.2"></circle><circle cx="42.5" cy="28" r="2.6"></circle></g><rect x="25" y="34.5" width="14" height="14.5" rx="6" fill="#fff8ef"></rect><g transform="translate(32 42) scale(0.72)"><circle cx="-5.5" cy="0" r="2" fill="#6b4a3a"></circle><circle cx="-6.2" cy="-0.7" r="0.7" fill="#ffffff"></circle><circle cx="5.5" cy="0" r="2" fill="#6b4a3a"></circle><circle cx="4.8" cy="-0.7" r="0.7" fill="#ffffff"></circle><path d="M-3.2 3.6 Q0 6.6 3.2 3.6" stroke="#6b4a3a" stroke-width="1.7" fill="none" stroke-linecap="round"></path><ellipse cx="-9.2" cy="3.2" rx="2.6" ry="1.6" fill="#f5b0a5" opacity=".75"></ellipse><ellipse cx="9.2" cy="3.2" rx="2.6" ry="1.6" fill="#f5b0a5" opacity=".75"></ellipse></g></svg>