<svg xmlns="http://www.w3.org/2000/svg" viewBox="0 0 64 64"><rect width="64" height="64" rx="16" fill="#eaf6df"></rect><rect x="22" y="14" width="20" height="38" rx="10" fill="#8fcb72"></rect><g transform="translate(32 14)"><path d="M0 0 Q0.2 -2.6 0 -4" stroke="#6da854" stroke-width="1.8" stroke-linecap="round" fill="none"></path><ellipse cx="-3.2" cy="-5.4" rx="3.4" ry="2" fill="#6da854" transform="rotate(-28 -3.2 -5.4)"></ellipse><ellipse cx="3.2" cy="-5.4" rx="3.4" ry="2" fill="#8fcb72" transform="rotate(28 3.2 -5.4)"></ellipse></g><g fill="#6da854" opacity=".5"><circle cx="27" cy="20" r="1.1"></circle><circle cx="37.5" cy="19" r="1.1"></circle><circle cx="38" cy="46" r="1.1"></circle></g><g transform="translate(32 32) scale(0.92)"><circle cx="-5.5" cy="0" r="2" fill="#33502e"></circle><circle cx="-6.2" cy="-0.7" r="0.7" fill="#ffffff"></circle><circle cx="5.5" cy="0" r="2" fill="#33502e"></circle><circle cx="4.8" cy="-0.7" r="0.7" fill="#ffffff"></circle><path d="M-3.2 3.6 Q0 6.6 3.2 3.6" stroke="#33502e" stroke-width="1.7" fill="none" stroke-linecap="round"></path><ellipse cx="-9.2" cy="3.2" rx="2.6" ry="1.6" fill="#f7b1c8" opacity=".75"></ellipse><ellipse cx="9.2" cy="3.2" rx="2.6" ry="1.6" fill="#f7b1c8" opacity=".75"></ellipse></g></svg>