<svg xmlns="http://www.w3.org/2000/svg" viewBox="0 0 64 64"><rect width="64" height="64" rx="16" fill="#fdf3e3"></rect><path d="M18 24 Q17.5 11.5 28 17.5 Z" fill="#f3cf96"></path><path d="M46 24 Q46.5 11.5 36 17.5 Z" fill="#f3cf96"></path><circle cx="32" cy="34" r="15.5" fill="#f9dfae"></circle><g transform="translate(32 33) scale(0.95)"><circle cx="-5.5" cy="0" r="2" fill="#6b5230"></circle><circle cx="-6.2" cy="-0.7" r="0.7" fill="#ffffff"></circle><circle cx="5.5" cy="0" r="2" fill="#6b5230"></circle><circle cx="4.8" cy="-0.7" r="0.7" fill="#ffffff"></circle><path d="M-3.2 3.6 Q0 6.6 3.2 3.6" stroke="#6b5230" stroke-width="1.7" fill="none" stroke-linecap="round"></path><ellipse cx="-9.2" cy="3.2" rx="2.6" ry="1.6" fill="#f5b0a5" opacity=".75"></ellipse><ellipse cx="9.2" cy="3.2" rx="2.6" ry="1.6" fill="#f5b0a5" opacity=".75"></ellipse></g><g stroke="#d9b988" stroke-width="1.3" stroke-linecap="round"><path d="M13.5 33 L19 33.6"></path><path d="M14 38 L19.3 37.4"></path><path d="M50.5 33 L45 33.6"></path><path d="M50 38 L44.7 37.4"></path></g></svg>