<svg xmlns="http://www.w3.org/2000/svg" viewBox="9 10 46 46"><circle cx="32" cy="33" r="21" fill="#8fcb72"></circle><circle cx="32" cy="33" r="17.5" fill="#ecf7df"></circle><g fill="#cde8b4"><ellipse cx="0" cy="-12" rx="2" ry="3.4" transform="translate(32 33) rotate(15)"></ellipse><ellipse cx="0" cy="-12" rx="2" ry="3.4" transform="translate(32 33) rotate(75)"></ellipse><ellipse cx="0" cy="-12" rx="2" ry="3.4" transform="translate(32 33) rotate(135)"></ellipse><ellipse cx="0" cy="-12" rx="2" ry="3.4" transform="translate(32 33) rotate(195)"></ellipse><ellipse cx="0" cy="-12" rx="2" ry="3.4" transform="translate(32 33) rotate(255)"></ellipse><ellipse cx="0" cy="-12" rx="2" ry="3.4" transform="translate(32 33) rotate(315)"></ellipse></g><g transform="translate(32 33) scale(0.92)"><circle cx="-5.5" cy="0" r="2" fill="#33502e"></circle><circle cx="-6.2" cy="-0.7" r="0.7" fill="#ffffff"></circle><circle cx="5.5" cy="0" r="2" fill="#33502e"></circle><circle cx="4.8" cy="-0.7" r="0.7" fill="#ffffff"></circle><path d="M-3.2 3.6 Q0 6.6 3.2 3.6" stroke="#33502e" stroke-width="1.7" fill="none" stroke-linecap="round"></path><ellipse cx="-9.2" cy="3.2" rx="2.6" ry="1.6" fill="#f7b1c8" opacity=".75"></ellipse><ellipse cx="9.2" cy="3.2" rx="2.6" ry="1.6" fill="#f7b1c8" opacity=".75"></ellipse></g></svg>