<svg xmlns="http://www.w3.org/2000/svg" viewBox="0 0 64 64"><rect x="20" y="12" width="24" height="44" rx="12" fill="#8fcb72"></rect><g transform="translate(32 12)"><path d="M0 0 Q0.2 -3 0 -4.6" stroke="#6da854" stroke-width="2" stroke-linecap="round" fill="none"></path><ellipse cx="-3.8" cy="-6.2" rx="4" ry="2.3" fill="#6da854" transform="rotate(-28 -3.8 -6.2)"></ellipse><ellipse cx="3.8" cy="-6.2" rx="4" ry="2.3" fill="#8fcb72" transform="rotate(28 3.8 -6.2)"></ellipse></g><g fill="#6da854" opacity=".5"><circle cx="26" cy="19.5" r="1.3"></circle><circle cx="38.5" cy="17.5" r="1.3"></circle><circle cx="40" cy="48" r="1.3"></circle><circle cx="25.5" cy="50.5" r="1.3"></circle><circle cx="33" cy="53" r="1.3"></circle></g><rect x="24" y="17" width="4.5" height="13" rx="2.25" fill="#ffffff" opacity=".4"></rect><g transform="translate(32 33) scale(1)"><circle cx="-5.5" cy="0" r="2" fill="#33502e"></circle><circle cx="-6.2" cy="-0.7" r="0.7" fill="#ffffff"></circle><circle cx="5.5" cy="0" r="2" fill="#33502e"></circle><circle cx="4.8" cy="-0.7" r="0.7" fill="#ffffff"></circle><path d="M-3.2 3.6 Q0 6.6 3.2 3.6" stroke="#33502e" stroke-width="1.7" fill="none" stroke-linecap="round"></path><ellipse cx="-9.2" cy="3.2" rx="2.6" ry="1.6" fill="#f7b1c8" opacity=".75"></ellipse><ellipse cx="9.2" cy="3.2" rx="2.6" ry="1.6" fill="#f7b1c8" opacity=".75"></ellipse></g></svg>