<svg xmlns="http://www.w3.org/2000/svg" width="130" height="130" viewBox="0 0 130 130"><g opacity=".8"><g transform="translate(30 34) rotate(-12) scale(0.85)"><rect x="-5" y="-13" width="10" height="26" rx="5" fill="#8fcb72"></rect><path d="M0 -13 Q0.1 -15 0 -16" stroke="#6da854" stroke-width="1.6" stroke-linecap="round" fill="none"></path><ellipse cx="-2.6" cy="-17" rx="2.8" ry="1.6" fill="#6da854" transform="rotate(-28 -2.6 -17)"></ellipse><ellipse cx="2.6" cy="-17" rx="2.8" ry="1.6" fill="#a9da8d" transform="rotate(28 2.6 -17)"></ellipse><g fill="#6da854" opacity=".55"><circle cx="-2" cy="-7" r="0.9"></circle><circle cx="2.4" cy="-1" r="0.9"></circle><circle cx="-1.8" cy="6" r="0.9"></circle></g><rect x="-3" y="-9" width="2.4" height="8" rx="1.2" fill="#ffffff" opacity=".4"></rect></g><g transform="translate(104 98) rotate(15) scale(0.5)"><rect x="-5" y="-13" width="10" height="26" rx="5" fill="#8fcb72"></rect><path d="M0 -13 Q0.1 -15 0 -16" stroke="#6da854" stroke-width="1.6" stroke-linecap="round" fill="none"></path><ellipse cx="-2.6" cy="-17" rx="2.8" ry="1.6" fill="#6da854" transform="rotate(-28 -2.6 -17)"></ellipse><ellipse cx="2.6" cy="-17" rx="2.8" ry="1.6" fill="#a9da8d" transform="rotate(28 2.6 -17)"></ellipse><g fill="#6da854" opacity=".55"><circle cx="-2" cy="-7" r="0.9"></circle><circle cx="2.4" cy="-1" r="0.9"></circle><circle cx="-1.8" cy="6" r="0.9"></circle></g><rect x="-3" y="-9" width="2.4" height="8" rx="1.2" fill="#ffffff" opacity=".4"></rect></g></g></svg>