<svg xmlns="http://www.w3.org/2000/svg" width="130" height="130" viewBox="0 0 130 130"><g opacity=".8"><g transform="translate(24 96) rotate(8) scale(0.65)"><ellipse cx="0" cy="-5.4" rx="2.5" ry="4.8" fill="#fffdf6" stroke="#e3d5be" stroke-width=".6" transform="rotate(0)"></ellipse><ellipse cx="0" cy="-5.4" rx="2.5" ry="4.8" fill="#fffdf6" stroke="#e3d5be" stroke-width=".6" transform="rotate(60)"></ellipse><ellipse cx="0" cy="-5.4" rx="2.5" ry="4.8" fill="#fffdf6" stroke="#e3d5be" stroke-width=".6" transform="rotate(120)"></ellipse><ellipse cx="0" cy="-5.4" rx="2.5" ry="4.8" fill="#fffdf6" stroke="#e3d5be" stroke-width=".6" transform="rotate(180)"></ellipse><ellipse cx="0" cy="-5.4" rx="2.5" ry="4.8" fill="#fffdf6" stroke="#e3d5be" stroke-width=".6" transform="rotate(240)"></ellipse><ellipse cx="0" cy="-5.4" rx="2.5" ry="4.8" fill="#fffdf6" stroke="#e3d5be" stroke-width=".6" transform="rotate(300)"></ellipse><circle r="2.8" fill="#ffd76e"></circle></g><g transform="translate(88 14) rotate(20) scale(0.45)"><ellipse cx="0" cy="-5.4" rx="2.5" ry="4.8" fill="#fffdf6" stroke="#e3d5be" stroke-width=".6" transform="rotate(0)"></ellipse><ellipse cx="0" cy="-5.4" rx="2.5" ry="4.8" fill="#fffdf6" stroke="#e3d5be" stroke-width=".6" transform="rotate(60)"></ellipse><ellipse cx="0" cy="-5.4" rx="2.5" ry="4.8" fill="#fffdf6" stroke="#e3d5be" stroke-width=".6" transform="rotate(120)"></ellipse><ellipse cx="0" cy="-5.4" rx="2.5" ry="4.8" fill="#fffdf6" stroke="#e3d5be" stroke-width=".6" transform="rotate(180)"></ellipse><ellipse cx="0" cy="-5.4" rx="2.5" ry="4.8" fill="#fffdf6" stroke="#e3d5be" stroke-width=".6" transform="rotate(240)"></ellipse><ellipse cx="0" cy="-5.4" rx="2.5" ry="4.8" fill="#fffdf6" stroke="#e3d5be" stroke-width=".6" transform="rotate(300)"></ellipse><circle r="2.8" fill="#ffd76e"></circle></g></g></svg>