<svg xmlns="http://www.w3.org/2000/svg" width="130" height="130" viewBox="0 0 130 130"><g opacity=".8"><g transform="translate(30 34) rotate(-12) scale(0.85)"><circle cx="-5.5" cy="-6" r="4" fill="#93d27f"></circle><circle cx="5.5" cy="-6" r="4" fill="#93d27f"></circle><ellipse cx="0" cy="1" rx="10.5" ry="8.8" fill="#93d27f"></ellipse><circle cx="-5.5" cy="-6" r="1.3" fill="#33502e"></circle><circle cx="5.5" cy="-6" r="1.3" fill="#33502e"></circle><path d="M-3.2 2 Q0 5 3.2 2" stroke="#33502e" stroke-width="1.3" fill="none" stroke-linecap="round"></path><ellipse cx="-7" cy="1.5" rx="1.8" ry="1.1" fill="#f7b1c8" opacity=".8"></ellipse><ellipse cx="7" cy="1.5" rx="1.8" ry="1.1" fill="#f7b1c8" opacity=".8"></ellipse></g><g transform="translate(104 98) rotate(15) scale(0.5)"><circle cx="-5.5" cy="-6" r="4" fill="#93d27f"></circle><circle cx="5.5" cy="-6" r="4" fill="#93d27f"></circle><ellipse cx="0" cy="1" rx="10.5" ry="8.8" fill="#93d27f"></ellipse><circle cx="-5.5" cy="-6" r="1.3" fill="#33502e"></circle><circle cx="5.5" cy="-6" r="1.3" fill="#33502e"></circle><path d="M-3.2 2 Q0 5 3.2 2" stroke="#33502e" stroke-width="1.3" fill="none" stroke-linecap="round"></path><ellipse cx="-7" cy="1.5" rx="1.8" ry="1.1" fill="#f7b1c8" opacity=".8"></ellipse><ellipse cx="7" cy="1.5" rx="1.8" ry="1.1" fill="#f7b1c8" opacity=".8"></ellipse></g></g></svg>